<svg xmlns="http://www.w3.org/2000/svg" xmlns:xlink="http://www.w3.org/1999/xlink" width="168" zoomAndPan="magnify" viewBox="0 0 126 38.999999" height="52" preserveAspectRatio="xMidYMid meet" version="1.0"><defs><g/><clipPath id="e0952528e6"><rect x="0" width="101" y="0" height="39"/></clipPath></defs><g transform="matrix(1, 0, 0, 1, 13, 0)"><g clip-path="url(#e0952528e6)"><g fill="#ffffff" fill-opacity="1"><g transform="translate(0.342856, 30.621058)"><g><path d="M 22.8125 -10.203125 C 23 -7.929688 22.335938 -5.90625 20.828125 -4.125 C 20.210938 -3.363281 19.601562 -2.828125 19 -2.515625 C 14.238281 0.0976562 9.703125 0.667969 5.390625 -0.796875 C 4.503906 -1.097656 3.601562 -1.632812 2.6875 -2.40625 C 1.90625 -3.050781 1.664062 -3.960938 1.96875 -5.140625 C 2.164062 -5.898438 2.273438 -6.703125 2.296875 -7.546875 C 2.316406 -9.023438 2.335938 -10.5 2.359375 -11.96875 C 2.390625 -13.445312 2.414062 -14.914062 2.4375 -16.375 C 2.46875 -17.550781 2.488281 -18.734375 2.5 -19.921875 C 2.507812 -21.109375 2.523438 -22.285156 2.546875 -23.453125 L 2.546875 -23.59375 C 2.578125 -23.863281 2.5625 -24.144531 2.5 -24.4375 C 2.4375 -24.738281 2.191406 -25.019531 1.765625 -25.28125 C 1.523438 -25.425781 1.378906 -25.632812 1.328125 -25.90625 C 1.304688 -26.207031 1.414062 -26.476562 1.65625 -26.71875 L 1.96875 -27.046875 C 2.382812 -27.429688 2.8125 -27.820312 3.25 -28.21875 C 3.695312 -28.613281 4.160156 -28.867188 4.640625 -28.984375 C 7.410156 -29.703125 10.101562 -30.109375 12.71875 -30.203125 C 12.863281 -30.234375 13.019531 -30.25 13.1875 -30.25 C 16.363281 -30.25 18.625 -28.832031 19.96875 -26 C 21.1875 -23.46875 20.816406 -21.171875 18.859375 -19.109375 C 18.765625 -19.015625 18.65625 -18.914062 18.53125 -18.8125 C 18.414062 -18.71875 18.285156 -18.625 18.140625 -18.53125 C 18.066406 -18.488281 17.992188 -18.4375 17.921875 -18.375 C 17.847656 -18.3125 17.773438 -18.257812 17.703125 -18.21875 L 17.28125 -17.890625 L 17.703125 -17.609375 C 17.847656 -17.484375 17.984375 -17.375 18.109375 -17.28125 C 18.242188 -17.1875 18.375 -17.085938 18.5 -16.984375 C 18.738281 -16.796875 18.957031 -16.625 19.15625 -16.46875 C 19.363281 -16.3125 19.5625 -16.148438 19.75 -15.984375 C 21.570312 -14.453125 22.59375 -12.523438 22.8125 -10.203125 Z M 7.65625 -19.9375 L 7.65625 -19.46875 L 8.125 -19.578125 C 8.363281 -19.628906 8.582031 -19.679688 8.78125 -19.734375 C 8.988281 -19.796875 9.195312 -19.851562 9.40625 -19.90625 C 9.882812 -20 10.351562 -20.101562 10.8125 -20.21875 C 11.269531 -20.34375 11.710938 -20.488281 12.140625 -20.65625 C 12.835938 -20.914062 13.34375 -21.175781 13.65625 -21.4375 C 13.96875 -21.707031 14.207031 -21.9375 14.375 -22.125 L 14.546875 -22.375 C 14.691406 -22.644531 14.828125 -22.945312 14.953125 -23.28125 C 15.085938 -23.613281 15.097656 -23.957031 14.984375 -24.3125 C 14.859375 -24.675781 14.582031 -24.96875 14.15625 -25.1875 C 13.695312 -25.394531 13.035156 -25.5625 12.171875 -25.6875 C 11.765625 -25.707031 11.367188 -25.710938 10.984375 -25.703125 C 10.609375 -25.691406 10.15625 -25.625 9.625 -25.5 C 9.101562 -25.382812 8.429688 -25.179688 7.609375 -24.890625 L 7.328125 -24.78125 L 7.328125 -24.5 C 7.347656 -23.96875 7.375 -23.53125 7.40625 -23.1875 C 7.445312 -22.84375 7.476562 -22.515625 7.5 -22.203125 C 7.53125 -21.890625 7.554688 -21.566406 7.578125 -21.234375 C 7.597656 -20.898438 7.625 -20.46875 7.65625 -19.9375 Z M 17.3125 -9.40625 C 17.476562 -10.582031 17.035156 -11.660156 15.984375 -12.640625 C 15.316406 -13.285156 14.601562 -13.726562 13.84375 -13.96875 C 13.09375 -14.207031 12.332031 -14.328125 11.5625 -14.328125 C 10.800781 -14.328125 10.035156 -14.289062 9.265625 -14.21875 L 8.546875 -14.1875 C 8.304688 -14.164062 8.113281 -14.007812 7.96875 -13.71875 C 7.832031 -13.4375 7.75 -13.210938 7.71875 -13.046875 C 7.71875 -12.679688 7.71875 -12.3125 7.71875 -11.9375 C 7.71875 -11.570312 7.71875 -11.207031 7.71875 -10.84375 L 7.71875 -10.0625 L 7.765625 -9.65625 C 7.765625 -9.5625 7.765625 -9.476562 7.765625 -9.40625 C 7.765625 -9.332031 7.765625 -9.265625 7.765625 -9.203125 C 7.765625 -8.859375 7.765625 -8.523438 7.765625 -8.203125 C 7.765625 -7.878906 7.75 -7.550781 7.71875 -7.21875 C 7.675781 -6.28125 8.132812 -5.765625 9.09375 -5.671875 C 9.40625 -5.648438 9.703125 -5.640625 9.984375 -5.640625 C 11.785156 -5.640625 13.582031 -6.082031 15.375 -6.96875 C 16.5 -7.519531 17.144531 -8.332031 17.3125 -9.40625 Z M 17.3125 -9.40625 "/></g></g></g><g fill="#ffffff" fill-opacity="1"><g transform="translate(24.523494, 30.621058)"><g><path d="M 18.46875 -7.1875 C 18.707031 -6.101562 18.71875 -5.195312 18.5 -4.46875 C 18.28125 -3.738281 17.828125 -3.234375 17.140625 -2.953125 C 16.390625 -2.640625 15.65625 -2.644531 14.9375 -2.96875 C 14.21875 -3.289062 13.550781 -3.90625 12.9375 -4.8125 C 12.882812 -4.882812 12.820312 -4.960938 12.75 -5.046875 C 12.675781 -5.128906 12.601562 -5.234375 12.53125 -5.359375 C 12.34375 -5.234375 12.171875 -5.101562 12.015625 -4.96875 C 11.859375 -4.84375 11.6875 -4.734375 11.5 -4.640625 C 10.988281 -4.398438 10.484375 -4.140625 9.984375 -3.859375 C 9.484375 -3.585938 8.957031 -3.390625 8.40625 -3.265625 C 7.0625 -2.929688 5.832031 -2.988281 4.71875 -3.4375 C 3.601562 -3.894531 2.734375 -4.640625 2.109375 -5.671875 C 1.492188 -6.703125 1.242188 -7.910156 1.359375 -9.296875 C 1.429688 -10.421875 1.722656 -11.519531 2.234375 -12.59375 C 2.753906 -13.675781 3.414062 -14.675781 4.21875 -15.59375 C 5.019531 -16.519531 5.921875 -17.296875 6.921875 -17.921875 C 7.929688 -18.546875 8.960938 -18.941406 10.015625 -19.109375 C 11.210938 -19.328125 12.296875 -19.203125 13.265625 -18.734375 C 14.242188 -18.265625 15.175781 -17.695312 16.0625 -17.03125 C 16.34375 -16.8125 16.550781 -16.472656 16.6875 -16.015625 C 16.820312 -15.566406 16.921875 -15.140625 16.984375 -14.734375 C 17.273438 -13.484375 17.523438 -12.222656 17.734375 -10.953125 C 17.953125 -9.679688 18.195312 -8.425781 18.46875 -7.1875 Z M 8.078125 -8.484375 C 9.179688 -8.910156 10.019531 -9.707031 10.59375 -10.875 C 11.164062 -12.050781 11.332031 -13.320312 11.09375 -14.6875 C 9.894531 -14.207031 8.953125 -13.53125 8.265625 -12.65625 C 7.585938 -11.78125 7.046875 -10.78125 6.640625 -9.65625 C 6.597656 -9.488281 6.578125 -9.257812 6.578125 -8.96875 C 6.578125 -8.6875 6.625 -8.523438 6.71875 -8.484375 C 6.90625 -8.378906 7.125 -8.328125 7.375 -8.328125 C 7.632812 -8.328125 7.867188 -8.378906 8.078125 -8.484375 Z M 8.078125 -8.484375 "/></g></g></g><g fill="#ffffff" fill-opacity="1"><g transform="translate(44.536294, 30.621058)"><g><path d="M 16.34375 -15.375 C 16.4375 -13.363281 16.523438 -11.332031 16.609375 -9.28125 C 16.691406 -7.238281 16.710938 -5.210938 16.671875 -3.203125 C 16.617188 -1.765625 16.316406 -0.398438 15.765625 0.890625 C 15.210938 2.191406 14.457031 3.390625 13.5 4.484375 C 12.8125 5.304688 12.03125 5.976562 11.15625 6.5 C 10.28125 7.03125 9.289062 7.351562 8.1875 7.46875 C 7.5 7.5625 6.859375 7.503906 6.265625 7.296875 C 5.679688 7.097656 5.1875 6.691406 4.78125 6.078125 C 4.269531 5.253906 4.226562 4.445312 4.65625 3.65625 C 5.09375 2.875 5.875 2.289062 7 1.90625 C 7.789062 1.613281 8.539062 1.109375 9.25 0.390625 C 9.957031 -0.324219 10.535156 -1.148438 10.984375 -2.078125 C 11.441406 -3.015625 11.679688 -3.925781 11.703125 -4.8125 C 11.609375 -4.789062 11.523438 -4.765625 11.453125 -4.734375 C 11.378906 -4.710938 11.3125 -4.679688 11.25 -4.640625 C 10 -3.867188 8.773438 -3.53125 7.578125 -3.625 C 6.378906 -3.71875 5.21875 -4.207031 4.09375 -5.09375 C 2.914062 -6.007812 2.101562 -7.132812 1.65625 -8.46875 C 1.21875 -9.8125 1.203125 -11.164062 1.609375 -12.53125 C 2.140625 -14.28125 3 -15.679688 4.1875 -16.734375 C 5.375 -17.785156 6.816406 -18.550781 8.515625 -19.03125 C 9.992188 -19.46875 11.40625 -19.242188 12.75 -18.359375 C 12.894531 -18.265625 13.050781 -18.179688 13.21875 -18.109375 C 13.382812 -18.035156 13.566406 -17.972656 13.765625 -17.921875 C 14.578125 -17.773438 15.195312 -17.515625 15.625 -17.140625 C 16.050781 -16.773438 16.289062 -16.1875 16.34375 -15.375 Z M 8.6875 -9.453125 C 9.457031 -10.003906 10.09375 -10.632812 10.59375 -11.34375 C 11.09375 -12.0625 11.40625 -12.914062 11.53125 -13.90625 C 11.070312 -14.019531 10.582031 -13.992188 10.0625 -13.828125 C 9.550781 -13.660156 9.070312 -13.394531 8.625 -13.03125 C 8.1875 -12.675781 7.832031 -12.273438 7.5625 -11.828125 C 7.289062 -11.390625 7.175781 -10.957031 7.21875 -10.53125 C 7.269531 -10.09375 7.445312 -9.753906 7.75 -9.515625 C 8.0625 -9.273438 8.375 -9.253906 8.6875 -9.453125 Z M 8.6875 -9.453125 "/></g></g></g><g fill="#ffffff" fill-opacity="1"><g transform="translate(62.572968, 30.621058)"><g><path d="M 18.46875 -7.1875 C 18.707031 -6.101562 18.71875 -5.195312 18.5 -4.46875 C 18.28125 -3.738281 17.828125 -3.234375 17.140625 -2.953125 C 16.390625 -2.640625 15.65625 -2.644531 14.9375 -2.96875 C 14.21875 -3.289062 13.550781 -3.90625 12.9375 -4.8125 C 12.882812 -4.882812 12.820312 -4.960938 12.75 -5.046875 C 12.675781 -5.128906 12.601562 -5.234375 12.53125 -5.359375 C 12.34375 -5.234375 12.171875 -5.101562 12.015625 -4.96875 C 11.859375 -4.84375 11.6875 -4.734375 11.5 -4.640625 C 10.988281 -4.398438 10.484375 -4.140625 9.984375 -3.859375 C 9.484375 -3.585938 8.957031 -3.390625 8.40625 -3.265625 C 7.0625 -2.929688 5.832031 -2.988281 4.71875 -3.4375 C 3.601562 -3.894531 2.734375 -4.640625 2.109375 -5.671875 C 1.492188 -6.703125 1.242188 -7.910156 1.359375 -9.296875 C 1.429688 -10.421875 1.722656 -11.519531 2.234375 -12.59375 C 2.753906 -13.675781 3.414062 -14.675781 4.21875 -15.59375 C 5.019531 -16.519531 5.921875 -17.296875 6.921875 -17.921875 C 7.929688 -18.546875 8.960938 -18.941406 10.015625 -19.109375 C 11.210938 -19.328125 12.296875 -19.203125 13.265625 -18.734375 C 14.242188 -18.265625 15.175781 -17.695312 16.0625 -17.03125 C 16.34375 -16.8125 16.550781 -16.472656 16.6875 -16.015625 C 16.820312 -15.566406 16.921875 -15.140625 16.984375 -14.734375 C 17.273438 -13.484375 17.523438 -12.222656 17.734375 -10.953125 C 17.953125 -9.679688 18.195312 -8.425781 18.46875 -7.1875 Z M 8.078125 -8.484375 C 9.179688 -8.910156 10.019531 -9.707031 10.59375 -10.875 C 11.164062 -12.050781 11.332031 -13.320312 11.09375 -14.6875 C 9.894531 -14.207031 8.953125 -13.53125 8.265625 -12.65625 C 7.585938 -11.78125 7.046875 -10.78125 6.640625 -9.65625 C 6.597656 -9.488281 6.578125 -9.257812 6.578125 -8.96875 C 6.578125 -8.6875 6.625 -8.523438 6.71875 -8.484375 C 6.90625 -8.378906 7.125 -8.328125 7.375 -8.328125 C 7.632812 -8.328125 7.867188 -8.378906 8.078125 -8.484375 Z M 8.078125 -8.484375 "/></g></g></g><g fill="#ffffff" fill-opacity="1"><g transform="translate(82.585767, 30.621058)"><g><path d="M 13.6875 -10.421875 C 14.789062 -9.390625 15.4375 -8.289062 15.625 -7.125 C 15.8125 -5.96875 15.585938 -4.882812 14.953125 -3.875 C 14.328125 -2.875 13.304688 -2.109375 11.890625 -1.578125 C 11.222656 -1.316406 10.515625 -1.109375 9.765625 -0.953125 C 9.023438 -0.796875 8.304688 -0.742188 7.609375 -0.796875 C 6.960938 -0.835938 6.3125 -0.984375 5.65625 -1.234375 C 5 -1.484375 4.382812 -1.789062 3.8125 -2.15625 C 3.132812 -2.582031 2.707031 -3.148438 2.53125 -3.859375 C 2.351562 -4.566406 2.394531 -5.21875 2.65625 -5.8125 C 2.914062 -6.394531 3.351562 -6.816406 3.96875 -7.078125 C 4.582031 -7.335938 5.296875 -7.421875 6.109375 -7.328125 C 6.679688 -7.253906 7.25 -7.191406 7.8125 -7.140625 C 8.375 -7.097656 8.929688 -7.050781 9.484375 -7 C 9.503906 -7.070312 9.523438 -7.144531 9.546875 -7.21875 C 9.578125 -7.289062 9.601562 -7.375 9.625 -7.46875 C 9.195312 -7.613281 8.757812 -7.757812 8.3125 -7.90625 C 7.875 -8.050781 7.453125 -8.21875 7.046875 -8.40625 C 6.328125 -8.757812 5.609375 -9.101562 4.890625 -9.4375 C 4.171875 -9.78125 3.523438 -10.203125 2.953125 -10.703125 C 2.015625 -11.492188 1.484375 -12.425781 1.359375 -13.5 C 1.242188 -14.582031 1.460938 -15.660156 2.015625 -16.734375 C 2.566406 -17.785156 3.367188 -18.660156 4.421875 -19.359375 C 5.472656 -20.054688 6.613281 -20.523438 7.84375 -20.765625 C 9.082031 -21.003906 10.265625 -20.941406 11.390625 -20.578125 C 12.253906 -20.316406 12.957031 -19.90625 13.5 -19.34375 C 14.050781 -18.78125 14.375 -18.054688 14.46875 -17.171875 C 14.519531 -16.804688 14.476562 -16.421875 14.34375 -16.015625 C 14.21875 -15.609375 14.035156 -15.265625 13.796875 -14.984375 C 13.503906 -14.617188 13.15625 -14.484375 12.75 -14.578125 C 12.34375 -14.679688 11.945312 -14.828125 11.5625 -15.015625 C 10.707031 -15.492188 9.9375 -15.671875 9.25 -15.546875 C 8.5625 -15.429688 7.894531 -14.988281 7.25 -14.21875 C 7.5625 -14.082031 7.847656 -13.953125 8.109375 -13.828125 C 8.378906 -13.710938 8.632812 -13.582031 8.875 -13.4375 C 9.6875 -12.957031 10.523438 -12.488281 11.390625 -12.03125 C 12.253906 -11.570312 13.019531 -11.035156 13.6875 -10.421875 Z M 13.6875 -10.421875 "/></g></g></g></g></g></svg>