<svg xmlns="http://www.w3.org/2000/svg" xmlns:xlink="http://www.w3.org/1999/xlink" width="100" zoomAndPan="magnify" viewBox="0 0 75 74.999997" height="100" preserveAspectRatio="xMidYMid meet" version="1.0"><defs><g/><clipPath id="189f7e9e9f"><rect x="0" width="57" y="0" height="75"/></clipPath></defs><g transform="matrix(1, 0, 0, 1, 10, -0.000000000000001893)"><g clip-path="url(#189f7e9e9f)"><g fill="#ffffff" fill-opacity="1"><g transform="translate(0.2347, 69.015996)"><g><path d="M 51.421875 -23 C 51.859375 -17.875 50.375 -13.3125 46.96875 -9.3125 C 45.5625 -7.582031 44.1875 -6.367188 42.84375 -5.671875 C 32.09375 0.210938 21.859375 1.507812 12.140625 -1.78125 C 10.148438 -2.476562 8.128906 -3.691406 6.078125 -5.421875 C 4.296875 -6.878906 3.753906 -8.929688 4.453125 -11.578125 C 4.890625 -13.304688 5.132812 -15.113281 5.1875 -17 C 5.238281 -20.351562 5.289062 -23.6875 5.34375 -27 C 5.394531 -30.320312 5.445312 -33.628906 5.5 -36.921875 C 5.5625 -39.566406 5.601562 -42.226562 5.625 -44.90625 C 5.65625 -47.582031 5.695312 -50.238281 5.75 -52.875 L 5.75 -53.203125 C 5.800781 -53.796875 5.757812 -54.429688 5.625 -55.109375 C 5.488281 -55.785156 4.9375 -56.421875 3.96875 -57.015625 C 3.425781 -57.335938 3.101562 -57.796875 3 -58.390625 C 2.945312 -59.085938 3.1875 -59.707031 3.71875 -60.25 L 4.453125 -60.984375 C 5.367188 -61.847656 6.328125 -62.722656 7.328125 -63.609375 C 8.328125 -64.503906 9.367188 -65.085938 10.453125 -65.359375 C 16.710938 -66.972656 22.785156 -67.890625 28.671875 -68.109375 C 28.992188 -68.160156 29.34375 -68.1875 29.71875 -68.1875 C 36.894531 -68.1875 42 -65 45.03125 -58.625 C 47.78125 -52.90625 46.941406 -47.722656 42.515625 -43.078125 C 42.296875 -42.867188 42.050781 -42.65625 41.78125 -42.4375 C 41.519531 -42.21875 41.222656 -42 40.890625 -41.78125 C 40.734375 -41.675781 40.570312 -41.554688 40.40625 -41.421875 C 40.25 -41.285156 40.085938 -41.164062 39.921875 -41.0625 L 38.953125 -40.328125 L 39.921875 -39.6875 C 40.242188 -39.414062 40.550781 -39.171875 40.84375 -38.953125 C 41.144531 -38.734375 41.429688 -38.519531 41.703125 -38.3125 C 42.242188 -37.875 42.742188 -37.476562 43.203125 -37.125 C 43.660156 -36.78125 44.109375 -36.414062 44.546875 -36.03125 C 48.648438 -32.582031 50.941406 -28.238281 51.421875 -23 Z M 17.25 -44.953125 L 17.25 -43.890625 L 18.296875 -44.140625 C 18.835938 -44.242188 19.335938 -44.363281 19.796875 -44.5 C 20.253906 -44.632812 20.726562 -44.753906 21.21875 -44.859375 C 22.300781 -45.078125 23.351562 -45.320312 24.375 -45.59375 C 25.40625 -45.863281 26.40625 -46.1875 27.375 -46.5625 C 28.9375 -47.15625 30.066406 -47.75 30.765625 -48.34375 C 31.472656 -48.9375 32.015625 -49.453125 32.390625 -49.890625 L 32.796875 -50.453125 C 33.117188 -51.046875 33.425781 -51.71875 33.71875 -52.46875 C 34.019531 -53.226562 34.035156 -54.015625 33.765625 -54.828125 C 33.492188 -55.640625 32.875 -56.285156 31.90625 -56.765625 C 30.882812 -57.253906 29.398438 -57.632812 27.453125 -57.90625 C 26.535156 -57.957031 25.644531 -57.96875 24.78125 -57.9375 C 23.914062 -57.914062 22.890625 -57.769531 21.703125 -57.5 C 20.515625 -57.226562 19.003906 -56.769531 17.171875 -56.125 L 16.515625 -55.875 L 16.515625 -55.234375 C 16.578125 -54.046875 16.644531 -53.054688 16.71875 -52.265625 C 16.800781 -51.484375 16.867188 -50.742188 16.921875 -50.046875 C 16.972656 -49.347656 17.023438 -48.617188 17.078125 -47.859375 C 17.140625 -47.109375 17.195312 -46.140625 17.25 -44.953125 Z M 39.03125 -21.21875 C 39.40625 -23.863281 38.40625 -26.289062 36.03125 -28.5 C 34.519531 -29.957031 32.914062 -30.957031 31.21875 -31.5 C 29.519531 -32.039062 27.804688 -32.3125 26.078125 -32.3125 C 24.347656 -32.3125 22.617188 -32.226562 20.890625 -32.0625 L 19.28125 -31.984375 C 18.738281 -31.929688 18.304688 -31.582031 17.984375 -30.9375 C 17.660156 -30.289062 17.46875 -29.773438 17.40625 -29.390625 C 17.40625 -28.585938 17.40625 -27.765625 17.40625 -26.921875 C 17.40625 -26.085938 17.40625 -25.265625 17.40625 -24.453125 L 17.40625 -22.671875 L 17.5 -21.78125 C 17.5 -21.5625 17.5 -21.367188 17.5 -21.203125 C 17.5 -21.046875 17.5 -20.890625 17.5 -20.734375 C 17.5 -19.972656 17.5 -19.226562 17.5 -18.5 C 17.5 -17.769531 17.46875 -17.03125 17.40625 -16.28125 C 17.300781 -14.175781 18.328125 -13.015625 20.484375 -12.796875 C 21.191406 -12.742188 21.867188 -12.71875 22.515625 -12.71875 C 26.566406 -12.71875 30.613281 -13.71875 34.65625 -15.71875 C 37.195312 -16.957031 38.65625 -18.789062 39.03125 -21.21875 Z M 39.03125 -21.21875 "/></g></g></g></g></g></svg>